<mxfile host="app.diagrams.net" modified="2023-11-04T11:49:44.228Z" agent="Mozilla/5.0 (Macintosh; Intel Mac OS X 10_15_7) AppleWebKit/537.36 (KHTML, like Gecko) Chrome/117.0.0.0 Safari/537.36" version="22.0.8" etag="2A9SSemW6h5s5GfEgBW9" type="github">
  <diagram name="Page-1" id="Wc4nMxFyczmvnSN96xyh">
    <mxGraphModel>
      <root>
        <mxCell id="0" />
        <mxCell id="1" parent="0" />
      </root>
    </mxGraphModel>
  </diagram>
</mxfile>
